<svg width="200" height="200" viewBox="0 0 200 200" fill="none" xmlns="http://www.w3.org/2000/svg">
<rect width="200" height="200" rx="5" fill="#F8F8F8"/>
<path d="M134.444 132H69.5556C65.3333 132 62 128.444 62 123.941V76.0593C62 71.5556 65.3333 68 69.5556 68H134.444C138.667 68 142 71.5556 142 76.0593V123.941C142 128.444 138.667 132 134.444 132ZM79.5556 77.2444C74.6667 77.2444 70.8889 81.5111 70.8889 86.4889C70.8889 91.4667 74.8889 95.7333 79.5556 95.7333C84.2222 95.7333 88.2222 91.4667 88.2222 86.4889C88.2222 81.5111 84.4444 77.2444 79.5556 77.2444ZM72 121.333H132V102.607L118.222 87.9111C117.556 87.2 116.222 87.2 115.556 87.9111L94.4444 110.667L85.7778 101.422C85.1111 100.711 83.7778 100.711 83.1111 101.422L72 113.274V121.333Z" fill="#BAB9BA"/>
</svg>
